<svg width="56" height="50" viewBox="0 0 56 50" fill="none" xmlns="http://www.w3.org/2000/svg">
<g clip-path="url(#clip0_8780_8454)">
<path d="M51.06 37.1139C44.0551 49.3294 28.5434 53.6146 16.4171 46.6843C4.29075 39.7539 -4.5238 21.5759 2.48751 9.36039C9.49882 -2.85509 34.2995 -1.828 46.4271 5.10233C58.5547 12.0326 58.0596 24.9036 51.06 37.1139Z" fill="#FFD100"/>
<path d="M47.9692 16.0002C47.6138 12.5886 44.8669 10.7628 41.1764 11.1447L35.437 11.7176L36.8822 22.6363L31.3006 12.2092L31.0718 12.2324L27.4627 13.1189L23.6559 24.0299L22.4834 13.0892L19.4289 13.4066L16.5463 19.6324L12.3452 14.1434L9.29199 14.4608L10.4386 25.4621L13.8227 25.1099L13.5732 20.6066L16.1094 23.8711L17.7472 23.7008L19.7456 19.6544L20.2743 24.4389L23.6559 24.0879L33.0754 23.1086L36.9171 22.7086L42.3204 22.1473C46.0083 21.764 48.3247 19.4105 47.9692 16.0002Z" fill="#101820"/>
<path d="M15.4704 29.2529L15.6889 31.1303L20.8595 30.529L20.9422 33.7122L16.0754 34.5096L16.511 38.2451L12.3267 38.7303L10.8828 26.3432L20.9719 25.1729L21.339 28.3225L15.4704 29.2529Z" fill="#101820"/>
<path d="M46.6883 22.543L47.4703 34.9907L44.0151 35.2075L39.1379 30.0785L39.2749 35.5043L35.1785 35.7623L34.3965 23.3133L37.8517 23.0965L42.7638 28.2655L42.588 22.801L46.6883 22.543Z" fill="#101820"/>
<path d="M34.1942 30.828L33.7004 23.9893L29.5704 24.286L25.7597 24.5596L21.5586 24.8615L22.0524 31.7002C22.3225 35.4331 24.7204 37.4215 28.5479 37.1467C32.3755 36.8718 34.4644 34.5596 34.1942 30.828Z" fill="#101820"/>
<path d="M22.9707 26.1588L32.2997 25.5137L32.3256 27.0775C32.3256 27.0775 28.8522 29.3433 23.1271 27.613L22.9707 26.1588Z" fill="white"/>
<path d="M25.2067 33.1614C25.2067 33.1614 24.8292 31.6311 27.7131 31.9343C29.1764 32.0878 28.2082 33.4246 28.2082 33.4246C28.2082 33.4246 31.4566 31.8298 31.5251 33.0878C31.5936 34.4259 26.3701 36.6982 25.2067 33.1614Z" fill="#EA0029"/>
<path d="M31.0607 20.722C32.1014 20.2234 32.4572 18.8046 31.8555 17.5531C31.2537 16.3016 29.9222 15.6913 28.8815 16.1899C27.8407 16.6886 27.4849 18.1073 28.0867 19.3588C28.6885 20.6103 30.02 21.2206 31.0607 20.722Z" fill="white"/>
<path d="M30.2854 19.1242C31.0821 19.1242 31.728 18.4731 31.728 17.67C31.728 16.8669 31.0821 16.2158 30.2854 16.2158C29.4886 16.2158 28.8428 16.8669 28.8428 17.67C28.8428 18.4731 29.4886 19.1242 30.2854 19.1242Z" fill="#101820"/>
<path d="M29.7834 18.2539C30.0661 18.2539 30.2953 18.0372 30.2953 17.77C30.2953 17.5028 30.0661 17.2861 29.7834 17.2861C29.5007 17.2861 29.2715 17.5028 29.2715 17.77C29.2715 18.0372 29.5007 18.2539 29.7834 18.2539Z" fill="white"/>
<path d="M26.5417 11.4666L32.1582 11.3273L32.1763 10.6718L26.3193 9.91309L26.5417 11.4666Z" fill="#101820"/>
</g>
<defs>
<clipPath id="clip0_8780_8454">
<rect width="56" height="50" fill="white"/>
</clipPath>
</defs>
</svg>
